<svg width="1324" height="285" viewBox="0 0 1324 285" fill="none" xmlns="http://www.w3.org/2000/svg">
<path d="M659.302 257.709C714.404 294.097 796.903 294.097 850.397 257.709V235.238C789.556 270.675 720.143 270.675 659.302 235.238V257.709ZM659.302 27.2909V49.7624C719.837 14.3251 789.25 14.3251 850.397 49.7624V27.2909C796.903 -9.09696 714.404 -9.09696 659.302 27.2909ZM370.403 141.549C370.403 94.7053 338.873 62.424 294.907 62.424C250.634 62.424 218.798 95.0095 218.798 141.549C218.798 188.698 250.634 221.625 294.907 221.625C338.873 221.625 370.403 188.698 370.403 141.549ZM193.314 141.549C193.314 82.9943 236.323 40.903 294.907 40.903C353.49 40.903 395.888 82.6901 395.888 141.549C395.888 201.055 353.528 243.146 294.907 243.146C236.285 243.146 193.314 200.713 193.314 141.549ZM1261.28 214.667C1283.25 214.667 1296.64 202.31 1296.64 181.131C1296.64 159.952 1284.2 148.546 1261.28 148.546H1191.22V214.705H1261.28V214.667ZM1166.35 45.3137H1191.18V124.439H1265.07C1302.65 124.439 1324 145.314 1324 181.397C1324 216.53 1299.47 239.648 1261.25 239.648H1166.35V45.3137ZM1142.78 216.226V279.838H1117.94V239.648H885.103V45.3137H909.937V216.226H987.959V45.3137H1013.14V216.226H1091.16V45.3137H1116.34V216.226H1142.78ZM832.91 141.549C832.91 94.7053 801.38 62.424 755.5 62.424C709.314 62.424 677.478 95.0095 677.478 141.549C677.478 188.698 709.314 221.625 755.5 221.625C801.341 221.625 832.91 188.698 832.91 141.549ZM651.994 141.549C651.994 82.9943 695.003 40.903 755.5 40.903C815.997 40.903 858.394 82.6901 858.394 141.549C858.394 201.055 816.035 243.146 755.5 243.146C694.965 243.146 651.994 200.713 651.994 141.549ZM422.673 45.3137H457.379L524.916 211.473L590.541 45.3137H625.247V239.648H600.068V129.838C600.068 101.664 600.719 90.903 601.982 71.5874H601.331C598.461 82.9943 594.979 94.7053 579.673 131.74L536.358 237.139H510.567L461.818 119.724C452.596 97.557 447.162 79.5342 445.555 71.6255H444.905C446.167 84.9335 446.818 106.454 446.818 128.926V239.686H422.596V45.3137H422.673ZM0 45.3137H166.567V239.648H140.432V70.0285H26.441V239.686H0V45.3137Z" fill="black"/>
</svg>
